<?xml version="1.0" encoding="utf-8"?>
<!-- Generator: Adobe Illustrator 17.0.0, SVG Export Plug-In . SVG Version: 6.00 Build 0)  -->
<!DOCTYPE svg PUBLIC "-//W3C//DTD SVG 1.1//EN" "http://www.w3.org/Graphics/SVG/1.1/DTD/svg11.dtd">
<svg version="1.1" id="Layer_1" xmlns="http://www.w3.org/2000/svg" xmlns:xlink="http://www.w3.org/1999/xlink" x="0px" y="0px"
	 width="170px" height="52px" viewBox="0 0 170 52" enable-background="new 0 0 170 52" xml:space="preserve">
<g>
	<path fill-rule="evenodd" clip-rule="evenodd" fill="#2C3589" d="M94.146,51.173c-0.035-0.01-0.07-0.028-0.105-0.03
		c-0.871-0.021-1.742-0.038-2.612-0.059c-0.728-0.018-1.456-0.028-2.183-0.061c-0.815-0.036-1.63-0.087-2.445-0.143
		c-0.489-0.033-0.976-0.089-1.465-0.131c-0.613-0.054-1.227-0.1-1.839-0.157c-0.212-0.02-0.422-0.067-0.634-0.095
		c-0.128-0.017-0.257-0.019-0.385-0.033c-0.27-0.032-0.538-0.068-0.807-0.101c-0.322-0.039-0.644-0.076-0.965-0.115
		c-0.307-0.037-0.615-0.07-0.922-0.115c-0.545-0.079-1.091-0.159-1.634-0.25c-0.491-0.081-0.98-0.184-1.471-0.266
		c-0.461-0.076-0.926-0.126-1.385-0.208c-0.458-0.082-0.912-0.186-1.366-0.285c-0.356-0.078-0.711-0.167-1.067-0.246
		c-0.44-0.098-0.883-0.187-1.322-0.29c-0.369-0.087-0.734-0.189-1.1-0.285c-0.362-0.095-0.725-0.188-1.086-0.289
		c-0.32-0.089-0.637-0.188-0.954-0.283c-0.276-0.083-0.552-0.166-0.828-0.25c-0.377-0.115-0.754-0.228-1.129-0.348
		c-0.213-0.068-0.422-0.149-0.633-0.222c-0.175-0.061-0.35-0.118-0.525-0.18c-0.25-0.088-0.499-0.181-0.75-0.267
		c-0.201-0.069-0.408-0.124-0.608-0.195c-0.204-0.073-0.405-0.157-0.607-0.236c-0.123-0.048-0.247-0.096-0.371-0.142
		c-0.316-0.117-0.634-0.228-0.948-0.349c-0.304-0.118-0.604-0.248-0.907-0.368c-0.18-0.071-0.366-0.13-0.547-0.2
		c-0.186-0.072-0.369-0.15-0.553-0.225c-0.127-0.051-0.256-0.1-0.383-0.15c-0.167-0.066-0.335-0.131-0.501-0.2
		c-0.179-0.074-0.356-0.154-0.534-0.231c-0.121-0.053-0.24-0.113-0.363-0.162c-0.281-0.113-0.567-0.215-0.846-0.332
		c-0.284-0.12-0.561-0.253-0.842-0.378c-0.13-0.058-0.263-0.109-0.394-0.164c-0.266-0.11-0.535-0.213-0.797-0.332
		c-0.371-0.168-0.735-0.35-1.106-0.518c-0.263-0.119-0.534-0.22-0.797-0.338c-0.264-0.118-0.521-0.25-0.783-0.373
		c-0.248-0.116-0.499-0.227-0.747-0.343c-0.146-0.068-0.29-0.141-0.434-0.213c-0.14-0.069-0.28-0.14-0.421-0.208
		c-0.277-0.134-0.554-0.267-0.832-0.399c-0.235-0.112-0.473-0.218-0.706-0.333c-0.246-0.122-0.487-0.253-0.731-0.379
		c-0.113-0.058-0.229-0.111-0.342-0.17c-0.256-0.133-0.513-0.268-0.767-0.404c-0.213-0.114-0.425-0.228-0.636-0.347
		c-0.214-0.121-0.425-0.248-0.639-0.37c-0.193-0.111-0.389-0.218-0.583-0.327c-0.227-0.128-0.453-0.259-0.682-0.383
		c-0.221-0.12-0.445-0.234-0.667-0.35c-0.239-0.126-0.477-0.253-0.716-0.379c-0.214-0.113-0.427-0.227-0.641-0.338
		c-0.126-0.065-0.257-0.121-0.384-0.186c-0.265-0.136-0.529-0.275-0.793-0.411c-0.332-0.171-0.663-0.346-0.998-0.511
		c-0.246-0.122-0.498-0.229-0.745-0.348c-0.248-0.119-0.493-0.245-0.74-0.368c-0.114-0.057-0.229-0.114-0.344-0.169
		c-0.298-0.144-0.594-0.292-0.896-0.427c-0.268-0.12-0.545-0.222-0.813-0.341c-0.26-0.116-0.511-0.25-0.771-0.365
		c-0.273-0.121-0.552-0.228-0.827-0.344c-0.166-0.07-0.328-0.148-0.493-0.22c-0.143-0.063-0.287-0.124-0.432-0.182
		c-0.167-0.067-0.336-0.129-0.502-0.195c-0.357-0.143-0.711-0.29-1.068-0.431c-0.37-0.146-0.742-0.288-1.113-0.432
		c-0.331-0.129-0.662-0.259-0.994-0.385c-0.243-0.092-0.487-0.18-0.732-0.264c-0.201-0.068-0.407-0.126-0.609-0.191
		c-0.154-0.049-0.306-0.102-0.459-0.156c-0.197-0.07-0.39-0.149-0.589-0.213c-0.225-0.073-0.454-0.135-0.682-0.201
		c-0.219-0.063-0.439-0.123-0.657-0.189c-0.241-0.073-0.477-0.16-0.719-0.227c-0.375-0.104-0.753-0.196-1.129-0.291
		c-0.386-0.098-0.77-0.204-1.159-0.288c-0.497-0.107-0.997-0.199-1.497-0.292c-0.504-0.094-1.009-0.187-1.515-0.269
		c-0.217-0.035-0.439-0.038-0.658-0.059c-0.308-0.03-0.615-0.068-0.923-0.093c-0.205-0.017-0.411-0.02-0.617-0.024
		c-0.508-0.011-1.016-0.019-1.524-0.031c-0.057-0.002-0.112-0.021-0.169-0.025c-0.083-0.006-0.166-0.011-0.248-0.007
		c-0.114,0.006-0.227,0.028-0.341,0.032c-0.69,0.021-1.382,0.014-2.07,0.066c-0.615,0.047-1.226,0.154-1.838,0.241
		c-0.382,0.055-0.764,0.112-1.142,0.187c-0.302,0.059-0.599,0.147-0.898,0.222c-0.244,0.061-0.49,0.118-0.732,0.185
		c-0.259,0.072-0.516,0.154-0.773,0.233c-0.203,0.063-0.407,0.126-0.608,0.197c-0.179,0.063-0.355,0.134-0.531,0.206
		c-0.193,0.079-0.386,0.159-0.576,0.243c-0.147,0.066-0.289,0.141-0.433,0.212c-0.107,0.052-0.215,0.1-0.32,0.155
		c-0.318,0.168-0.642,0.327-0.95,0.512c-0.334,0.199-0.659,0.414-0.977,0.638c-0.35,0.247-0.694,0.504-1.029,0.772
		c-0.548,0.437-1.046,0.927-1.485,1.475c-0.075,0.093-0.16,0.178-0.24,0.266c-0.016-0.01-0.032-0.02-0.049-0.03
		c0.019-0.052,0.027-0.114,0.059-0.156c0.322-0.421,0.626-0.859,0.98-1.252c0.402-0.446,0.841-0.862,1.283-1.271
		c0.308-0.285,0.638-0.548,0.974-0.8c0.307-0.231,0.632-0.437,0.952-0.65c0.26-0.173,0.52-0.349,0.79-0.506
		c0.303-0.176,0.617-0.333,0.928-0.496c0.244-0.128,0.488-0.253,0.735-0.376c0.114-0.056,0.231-0.107,0.35-0.154
		c0.296-0.117,0.592-0.229,0.889-0.343c0.189-0.073,0.375-0.157,0.568-0.221c0.211-0.07,0.428-0.127,0.644-0.182
		c0.339-0.086,0.679-0.172,1.021-0.248c0.195-0.044,0.394-0.072,0.593-0.097c0.336-0.043,0.672-0.076,1.008-0.119
		c0.174-0.022,0.345-0.062,0.519-0.085c0.175-0.023,0.352-0.038,0.528-0.053c0.56-0.05,1.123-0.077,1.68-0.155
		c0.555-0.078,1.109-0.127,1.668-0.141c0.385-0.01,0.768-0.054,1.152-0.084c0.031-0.003,0.061-0.02,0.092-0.03
		c0.115,0,0.23,0,0.346,0c0.044,0.011,0.087,0.027,0.131,0.031c0.552,0.035,1.105,0.057,1.656,0.106
		c0.513,0.046,1.024,0.11,1.533,0.185c0.356,0.052,0.708,0.138,1.062,0.205c0.205,0.039,0.412,0.07,0.618,0.108
		c0.149,0.027,0.298,0.056,0.446,0.09c0.166,0.038,0.331,0.085,0.496,0.126c0.391,0.098,0.782,0.197,1.174,0.292
		c0.267,0.066,0.538,0.117,0.802,0.194c0.395,0.116,0.786,0.249,1.178,0.373c0.279,0.089,0.557,0.181,0.838,0.264
		c0.232,0.068,0.47,0.12,0.7,0.192c0.221,0.069,0.437,0.155,0.655,0.232c0.161,0.057,0.321,0.115,0.483,0.168
		c0.338,0.112,0.68,0.214,1.016,0.333c0.334,0.118,0.661,0.257,0.994,0.378c0.195,0.071,0.4,0.116,0.596,0.187
		c0.182,0.066,0.357,0.151,0.537,0.225c0.136,0.055,0.273,0.108,0.41,0.159c0.173,0.064,0.348,0.124,0.522,0.187
		c0.138,0.05,0.277,0.097,0.413,0.153c0.18,0.073,0.358,0.153,0.537,0.228c0.131,0.054,0.264,0.105,0.397,0.154
		c0.178,0.065,0.36,0.12,0.536,0.19c0.163,0.064,0.321,0.141,0.482,0.212c0.139,0.061,0.276,0.124,0.417,0.18
		c0.291,0.114,0.585,0.221,0.875,0.337c0.158,0.063,0.31,0.142,0.466,0.21c0.148,0.065,0.298,0.122,0.446,0.186
		c0.327,0.138,0.652,0.281,0.979,0.417c0.275,0.114,0.555,0.218,0.83,0.333c0.157,0.066,0.307,0.147,0.462,0.217
		c0.134,0.061,0.268,0.12,0.404,0.176c0.276,0.112,0.556,0.215,0.828,0.333c0.269,0.117,0.53,0.251,0.796,0.374
		c0.129,0.06,0.262,0.11,0.392,0.168c0.306,0.138,0.609,0.282,0.916,0.416c0.265,0.115,0.537,0.215,0.801,0.331
		c0.268,0.118,0.531,0.249,0.796,0.373c0.125,0.058,0.25,0.115,0.377,0.169c0.266,0.113,0.535,0.218,0.798,0.336
		c0.268,0.12,0.529,0.256,0.797,0.376c0.263,0.117,0.534,0.217,0.798,0.334c0.269,0.119,0.532,0.25,0.798,0.374
		c0.142,0.066,0.286,0.127,0.429,0.188c0.157,0.067,0.316,0.129,0.473,0.197c0.182,0.08,0.363,0.162,0.543,0.246
		c0.271,0.125,0.541,0.253,0.812,0.377c0.147,0.067,0.296,0.127,0.443,0.193c0.164,0.073,0.328,0.148,0.491,0.223
		c0.129,0.059,0.256,0.124,0.387,0.179c0.384,0.163,0.771,0.317,1.153,0.482c0.265,0.115,0.523,0.246,0.786,0.364
		c0.16,0.072,0.327,0.128,0.488,0.199c0.16,0.07,0.316,0.151,0.475,0.224c0.129,0.059,0.26,0.116,0.392,0.169
		c0.28,0.113,0.564,0.22,0.842,0.337c0.279,0.118,0.553,0.25,0.832,0.37c0.165,0.072,0.337,0.128,0.503,0.199
		c0.165,0.07,0.326,0.15,0.49,0.224c0.13,0.058,0.259,0.115,0.392,0.166c0.173,0.065,0.35,0.118,0.523,0.185
		c0.171,0.067,0.339,0.144,0.509,0.216c0.148,0.063,0.295,0.126,0.444,0.186c0.351,0.141,0.701,0.283,1.054,0.418
		c0.185,0.071,0.377,0.125,0.565,0.191c0.166,0.058,0.33,0.121,0.494,0.183c0.319,0.12,0.637,0.246,0.958,0.361
		c0.339,0.121,0.682,0.233,1.024,0.346c0.396,0.13,0.793,0.257,1.19,0.385c0.266,0.086,0.531,0.175,0.799,0.255
		c0.236,0.07,0.476,0.13,0.714,0.195c0.206,0.057,0.412,0.114,0.617,0.174c0.432,0.125,0.863,0.255,1.297,0.378
		c0.369,0.104,0.741,0.199,1.111,0.299c0.297,0.08,0.592,0.168,0.891,0.242c0.304,0.075,0.613,0.134,0.918,0.205
		c0.162,0.037,0.32,0.088,0.481,0.126c0.35,0.084,0.7,0.17,1.053,0.245c0.358,0.075,0.719,0.135,1.077,0.206
		c0.186,0.037,0.37,0.088,0.556,0.127c0.447,0.092,0.894,0.186,1.342,0.269c0.407,0.076,0.816,0.138,1.224,0.206
		c0.296,0.049,0.592,0.097,0.887,0.145c0.3,0.049,0.601,0.094,0.9,0.147c0.411,0.072,0.82,0.157,1.233,0.222
		c0.222,0.036,0.449,0.034,0.671,0.065c0.476,0.065,0.95,0.141,1.425,0.212c0.075,0.011,0.152,0.016,0.228,0.024
		c0.332,0.036,0.663,0.074,0.995,0.109c0.19,0.02,0.38,0.035,0.57,0.055c0.265,0.029,0.53,0.061,0.795,0.089
		c0.214,0.022,0.429,0.033,0.642,0.057c0.288,0.033,0.574,0.078,0.862,0.107c0.167,0.017,0.336,0.014,0.503,0.021
		c0.32,0.015,0.641,0.023,0.961,0.046c0.404,0.028,0.807,0.07,1.21,0.102c0.234,0.019,0.468,0.026,0.702,0.041
		c0.538,0.034,1.075,0.071,1.613,0.105c0.248,0.016,0.497,0.024,0.745,0.039c0.414,0.026,0.826,0.06,1.239,0.083
		c0.244,0.013,0.489,0.012,0.734,0.017c0.336,0.005,0.672,0.008,1.008,0.015c0.273,0.006,0.549-0.005,0.818,0.033
		c0.838,0.118,1.681,0.079,2.522,0.088c1.719,0.019,3.438,0.02,5.157,0.02c0.888,0,1.776-0.015,2.664-0.028
		c0.306-0.004,0.615,0.009,0.917-0.034c0.709-0.102,1.422-0.079,2.133-0.112c0.768-0.035,1.534-0.088,2.301-0.143
		c0.499-0.036,0.996-0.095,1.494-0.136c0.651-0.054,1.304-0.094,1.955-0.152c0.554-0.049,1.108-0.115,1.661-0.172
		c0.384-0.039,0.769-0.073,1.152-0.117c0.169-0.019,0.336-0.061,0.505-0.083c0.17-0.023,0.342-0.035,0.513-0.054
		c0.534-0.059,1.07-0.109,1.603-0.18c0.481-0.063,0.958-0.152,1.438-0.222c0.213-0.031,0.429-0.033,0.641-0.065
		c0.452-0.066,0.903-0.147,1.356-0.212c0.264-0.038,0.531-0.057,0.797-0.085c0.01,0.014,0.02,0.028,0.031,0.042
		c-0.032,0.035-0.06,0.093-0.098,0.101c-0.294,0.065-0.59,0.115-0.884,0.18c-0.306,0.068-0.608,0.155-0.914,0.223
		c-0.333,0.075-0.67,0.136-1.005,0.206c-0.302,0.063-0.602,0.132-0.903,0.196c-0.13,0.028-0.262,0.049-0.392,0.077
		c-0.403,0.087-0.804,0.185-1.209,0.263c-0.379,0.072-0.762,0.118-1.14,0.189c-0.382,0.072-0.759,0.171-1.142,0.24
		c-0.417,0.074-0.837,0.127-1.256,0.19c-0.033,0.005-0.065,0.012-0.097,0.018c-0.55,0.091-1.099,0.181-1.648,0.271
		c-0.488,0.081-0.975,0.17-1.464,0.241c-0.5,0.072-1.002,0.127-1.502,0.191c-0.117,0.015-0.233,0.043-0.35,0.057
		c-0.251,0.031-0.504,0.054-0.755,0.085c-0.231,0.028-0.46,0.067-0.691,0.095c-0.162,0.02-0.324,0.032-0.486,0.047
		c-0.551,0.05-1.105,0.077-1.652,0.154c-0.507,0.072-1.017,0.09-1.522,0.148c-0.656,0.075-1.312,0.11-1.97,0.138
		c-0.466,0.02-0.93,0.08-1.395,0.118c-0.148,0.012-0.297,0.009-0.445,0.022c-0.398,0.034-0.796,0.083-1.194,0.106
		c-0.421,0.024-0.844,0.025-1.266,0.037c-0.272,0.008-0.548-0.004-0.816,0.034c-0.809,0.114-1.623,0.083-2.435,0.11
		c-0.378,0.012-0.762-0.019-1.132,0.039c-0.427,0.067-0.85,0.025-1.273,0.049c-0.031,0.002-0.061,0.019-0.092,0.029
		C95.703,51.173,94.924,51.173,94.146,51.173z"/>
	<g>
		<path fill="#2C3589" d="M33.32,0.892c0.424-0.019,0.829-0.029,1.215-0.029c2.738,0,5.294,0.559,7.666,1.678
			c2.372,1.119,4.503,2.7,6.393,4.744c0,0.116-0.02,0.231-0.058,0.347c-0.039,0.116-0.116,0.27-0.231,0.463
			c-1.698-2.044-3.674-3.645-5.93-4.802c-2.256-1.157-4.638-1.736-7.145-1.736c-0.733,0-1.495,0.058-2.285,0.174
			c-0.791,0.116-1.572,0.289-2.343,0.521c-1.929,0.502-3.655,1.543-5.178,3.124c-1.524,1.582-2.671,3.26-3.442,5.033
			c-0.039,0.039-0.068,0.078-0.087,0.116c-0.02,0.039-0.029,0.078-0.029,0.116c-0.463,1.774-0.859,3.674-1.186,5.699
			c-0.328,2.025-0.492,4.079-0.492,6.161c0.038,2.97,0.492,5.834,1.36,8.591c0.868,2.758,2.42,5.062,4.657,6.913
			c1.195,0.888,2.526,1.524,3.992,1.909c1.465,0.386,2.97,0.579,4.513,0.579c0.655,0,1.321-0.029,1.996-0.087
			c0.674-0.058,1.321-0.144,1.938-0.26c2.699-0.694,5.187-2.063,7.463-4.107c2.275-2.044,3.779-4.455,4.513-7.232l-0.463-0.463
			H33.783l-0.521-3.24c1.041,0,2.092-0.019,3.153-0.058c1.06-0.038,2.131-0.077,3.211-0.116c0.694-0.038,1.407-0.067,2.141-0.087
			c0.732-0.019,1.446-0.048,2.14-0.087c0.385,0,0.761,0,1.128,0c0.366,0,0.723,0,1.07,0c1.041,0,2.083,0.029,3.124,0.087
			c1.041,0.058,2.083,0.145,3.124,0.26c0,0.039-0.01,0.087-0.029,0.145c-0.02,0.058-0.029,0.107-0.029,0.145
			c-0.425,3.047-1.62,5.95-3.587,8.707c-1.967,2.758-4.455,4.754-7.463,5.988c-1.157,0.347-2.324,0.607-3.5,0.781
			c-1.177,0.174-2.363,0.26-3.558,0.26c-2.7,0-5.332-0.482-7.897-1.446c-2.565-0.963-4.812-2.391-6.74-4.281
			c-1.774-1.812-3.057-3.876-3.847-6.19c-0.791-2.314-1.186-4.705-1.186-7.174c0-1.311,0.096-2.612,0.289-3.905
			c0.193-1.292,0.463-2.536,0.81-3.732c0.964-3.356,2.922-6.219,5.872-8.591c2.951-2.372,6.104-3.905,9.459-4.599
			c0.193-0.038,0.376-0.067,0.55-0.087c0.173-0.019,0.356-0.048,0.55-0.087C32.472,0.96,32.896,0.912,33.32,0.892z"/>
		<path fill="#2C3589" d="M58.371,41.129h-3.24l0.058-39.977l3.182-0.116V41.129z"/>
		<path fill="#2C3589" d="M71.85,40.204c-0.116,0.039-0.231,0.087-0.347,0.144c-0.116,0.058-0.231,0.126-0.347,0.203
			c-0.116,0.039-0.231,0.078-0.347,0.116c-0.116,0.039-0.231,0.078-0.347,0.115c-0.386,0.116-0.772,0.203-1.157,0.261
			c-0.386,0.058-0.772,0.087-1.157,0.087c-0.386,0-0.772-0.029-1.157-0.087c-0.386-0.058-0.772-0.145-1.157-0.261
			c-0.926-0.229-1.774-0.728-2.546-1.497c-0.772-0.768-1.331-1.575-1.678-2.42c-0.039-0.038-0.068-0.076-0.087-0.115
			c-0.02-0.038-0.029-0.077-0.029-0.115c-0.116-0.384-0.222-0.768-0.318-1.153c-0.097-0.383-0.164-0.767-0.203-1.151
			c0-0.192-0.01-0.384-0.029-0.576c-0.02-0.192-0.029-0.384-0.029-0.576c0-0.998,0.174-1.949,0.521-2.851
			c0.347-0.902,0.887-1.718,1.62-2.448c0.771-0.771,1.61-1.369,2.517-1.793c0.906-0.424,1.841-0.637,2.806-0.637
			c0.193,0,0.395,0.01,0.607,0.029c0.211,0.02,0.434,0.049,0.665,0.087c0.193,0.039,0.395,0.097,0.608,0.174
			c0.212,0.078,0.414,0.155,0.607,0.231c0.077,0.039,0.145,0.068,0.203,0.087c0.058,0.02,0.125,0.049,0.202,0.087
			c0.193,0.078,0.376,0.155,0.55,0.231c0.174,0.078,0.356,0.193,0.55,0.347c0.077,0.039,0.154,0.097,0.231,0.173
			c0.077,0.078,0.154,0.155,0.231,0.231c0.077-0.077,0.135-0.164,0.173-0.26c0.038-0.096,0.077-0.202,0.116-0.318
			c0.038-0.116,0.077-0.241,0.116-0.376c0.038-0.135,0.096-0.261,0.174-0.376h2.777v15.158h-3.24
			c-0.039-0.154-0.058-0.309-0.058-0.463c0-0.077-0.01-0.174-0.029-0.289c-0.02-0.116-0.029-0.25-0.029-0.405
			c0-0.038,0-0.077,0-0.116c0-0.038,0-0.077,0-0.115C72.447,39.838,72.119,40.05,71.85,40.204z M68.494,40.782
			c0.116,0,0.231-0.019,0.347-0.057c0.54-0.038,1.079-0.154,1.62-0.347c0.54-0.192,1.041-0.405,1.504-0.637
			c0.154-0.077,0.298-0.182,0.434-0.318c0.135-0.135,0.26-0.279,0.376-0.434c0.038-0.116,0.077-0.222,0.116-0.318
			c0.038-0.096,0.058-0.183,0.058-0.261l0.058-10.24c0-0.038-0.01-0.067-0.029-0.087c-0.02-0.019-0.029-0.048-0.029-0.087
			c-0.193-0.424-0.405-0.732-0.636-0.925c-0.231-0.193-0.56-0.366-0.984-0.521c-0.193-0.077-0.386-0.145-0.578-0.203
			c-0.193-0.058-0.425-0.125-0.694-0.202c-0.347-0.116-0.675-0.203-0.984-0.261c-0.309-0.058-0.617-0.087-0.926-0.087
			c-0.386,0-0.752,0.049-1.099,0.145c-0.347,0.097-0.694,0.223-1.041,0.376c-0.231,0.116-0.483,0.251-0.752,0.405
			c-0.27,0.155-0.541,0.328-0.81,0.521c-1.08,0.73-1.861,1.624-2.343,2.679c-0.483,1.056-0.723,2.198-0.723,3.427
			c0,0.538,0.058,1.085,0.174,1.642c0.116,0.557,0.25,1.105,0.405,1.643c0.463,1.19,1.253,2.15,2.372,2.88
			c1.118,0.731,2.314,1.153,3.587,1.267c0.038,0,0.077,0,0.116,0c0.038,0,0.077,0,0.116,0
			C68.263,40.782,68.379,40.782,68.494,40.782z"/>
		<path fill="#2C3589" d="M98.578,25.509c0.038,0,0.077,0,0.116,0c0.308,0,0.665,0.02,1.071,0.058
			c0.405,0.039,0.819,0.116,1.244,0.231c0.732,0.155,1.418,0.405,2.054,0.752c0.637,0.347,0.955,0.81,0.955,1.389
			c0,0.888,0,1.697,0,2.43c0,0.733,0,1.572,0,2.517c0,0.945,0,1.919,0,2.922c0,0.964,0,1.909,0,2.835c0,0.926,0,1.755,0,2.488
			c-0.193,0-0.367,0-0.52,0c-0.155,0-0.328,0-0.521,0c-0.193,0-0.405,0-0.636,0c-0.193,0-0.386,0-0.579,0c-0.194,0-0.367,0-0.521,0
			c0-0.732,0-1.562,0-2.488c0-0.926,0-1.87,0-2.835c0-1.967,0-4.59,0-7.868c0-0.848-0.213-1.389-0.636-1.62
			c-0.425-0.231-0.907-0.366-1.446-0.405c-0.116,0-0.231,0-0.347,0c-0.116,0-0.212,0-0.29,0c-0.039,0-0.078,0-0.116,0
			c-1.466-0.038-2.748,0.251-3.847,0.868c-1.099,0.617-1.707,1.293-1.822,2.025c-0.039,0.039-0.058,0.087-0.058,0.144
			c0,0.058,0,0.107,0,0.145c0,0.81,0,1.649,0,2.517c0,0.868,0,1.745,0,2.632c0,1.196,0,2.382,0,3.558c0,1.177,0,2.285,0,3.326
			l-3.009,0.058V27.476c-0.077-0.424-0.231-0.781-0.463-1.07c-0.231-0.289-0.694-0.453-1.389-0.492
			c-1.196,0-2.314,0.289-3.355,0.868c-1.041,0.578-1.909,1.408-2.604,2.488c0,0.656,0,1.417,0,2.285c0,0.868,0,1.745,0,2.632
			c0,1.735,0,4.05,0,6.942h-3.24V25.914h3.24v2.141c0.116-0.077,0.231-0.154,0.347-0.231c0.116-0.077,0.231-0.173,0.347-0.289
			c0.116-0.077,0.24-0.164,0.376-0.26c0.135-0.096,0.279-0.202,0.434-0.318c0.54-0.424,1.128-0.79,1.765-1.099
			c0.636-0.308,1.417-0.443,2.343-0.405c0.308,0,0.637,0.02,0.984,0.058c0.347,0.039,0.713,0.097,1.099,0.174
			c0.694,0.155,1.273,0.386,1.736,0.694c0.463,0.309,0.887,0.733,1.273,1.273c0.347-0.231,0.665-0.453,0.955-0.665
			c0.289-0.212,0.588-0.395,0.897-0.55c0.616-0.308,1.244-0.54,1.88-0.694c0.636-0.154,1.359-0.231,2.169-0.231
			C98.5,25.509,98.539,25.509,98.578,25.509z"/>
		<path fill="#2C3589" d="M116.917,40.204c-0.116,0.039-0.231,0.087-0.347,0.144s-0.231,0.126-0.347,0.203
			c-0.116,0.039-0.231,0.078-0.347,0.116c-0.116,0.039-0.231,0.078-0.347,0.115c-0.386,0.116-0.772,0.203-1.157,0.261
			c-0.386,0.058-0.772,0.087-1.157,0.087c-0.386,0-0.772-0.029-1.157-0.087c-0.386-0.058-0.772-0.145-1.157-0.261
			c-0.925-0.229-1.774-0.728-2.545-1.497c-0.772-0.768-1.331-1.575-1.678-2.42c-0.039-0.038-0.068-0.076-0.087-0.115
			c-0.02-0.038-0.029-0.077-0.029-0.115c-0.116-0.384-0.222-0.768-0.318-1.153c-0.097-0.383-0.164-0.767-0.202-1.151
			c0-0.192-0.01-0.384-0.029-0.576c-0.02-0.192-0.029-0.384-0.029-0.576c0-0.998,0.174-1.949,0.521-2.851
			c0.347-0.902,0.887-1.718,1.62-2.448c0.771-0.771,1.61-1.369,2.517-1.793c0.906-0.424,1.841-0.637,2.806-0.637
			c0.193,0,0.395,0.01,0.607,0.029c0.212,0.02,0.434,0.049,0.665,0.087c0.193,0.039,0.395,0.097,0.607,0.174
			c0.212,0.078,0.414,0.155,0.608,0.231c0.077,0.039,0.145,0.068,0.202,0.087c0.058,0.02,0.125,0.049,0.203,0.087
			c0.192,0.078,0.376,0.155,0.55,0.231c0.173,0.078,0.356,0.193,0.55,0.347c0.077,0.039,0.154,0.097,0.231,0.173
			c0.077,0.078,0.154,0.155,0.231,0.231c0.077-0.077,0.135-0.164,0.174-0.26c0.038-0.096,0.077-0.202,0.116-0.318
			c0.038-0.116,0.077-0.241,0.116-0.376c0.038-0.135,0.096-0.261,0.173-0.376h2.777v15.158h-3.24
			c-0.039-0.154-0.058-0.309-0.058-0.463c0-0.077-0.01-0.174-0.029-0.289c-0.02-0.116-0.029-0.25-0.029-0.405
			c0-0.038,0-0.077,0-0.116c0-0.038,0-0.077,0-0.115C117.514,39.838,117.186,40.05,116.917,40.204z M113.561,40.782
			c0.116,0,0.231-0.019,0.347-0.057c0.54-0.038,1.079-0.154,1.62-0.347c0.539-0.192,1.041-0.405,1.504-0.637
			c0.154-0.077,0.298-0.182,0.434-0.318c0.135-0.135,0.26-0.279,0.376-0.434c0.038-0.116,0.077-0.222,0.116-0.318
			c0.038-0.096,0.058-0.183,0.058-0.261l0.058-10.24c0-0.038-0.01-0.067-0.029-0.087c-0.02-0.019-0.029-0.048-0.029-0.087
			c-0.193-0.424-0.405-0.732-0.636-0.925c-0.231-0.193-0.56-0.366-0.983-0.521c-0.194-0.077-0.386-0.145-0.579-0.203
			c-0.193-0.058-0.425-0.125-0.694-0.202c-0.347-0.116-0.675-0.203-0.984-0.261c-0.309-0.058-0.617-0.087-0.925-0.087
			c-0.386,0-0.752,0.049-1.099,0.145c-0.347,0.097-0.694,0.223-1.041,0.376c-0.231,0.116-0.483,0.251-0.752,0.405
			c-0.27,0.155-0.54,0.328-0.81,0.521c-1.08,0.73-1.861,1.624-2.343,2.679c-0.483,1.056-0.723,2.198-0.723,3.427
			c0,0.538,0.058,1.085,0.173,1.642c0.116,0.557,0.25,1.105,0.405,1.643c0.463,1.19,1.253,2.15,2.372,2.88
			c1.118,0.731,2.314,1.153,3.587,1.267c0.038,0,0.077,0,0.116,0c0.038,0,0.077,0,0.116,0
			C113.33,40.782,113.445,40.782,113.561,40.782z"/>
		<path fill="#2C3589" d="M137.165,25.451l-9.372,15.042h9.141l0.058,0.636h-14.058l10.009-15.1l-8.678-0.058v-0.521H137.165z"/>
		<path fill="#2C3589" d="M141.85,41.129h-3.24l0.058-39.977l3.182-0.116V41.129z"/>
		<path fill="#2C3589" d="M148.937,26.203c0.983-0.424,2.015-0.675,3.095-0.752c0.077,0,0.154,0,0.231,0c0.077,0,0.154,0,0.231,0
			c0.116,0,0.241,0,0.376,0c0.135,0,0.26,0.02,0.376,0.058c0.463,0.039,0.935,0.126,1.417,0.26c0.482,0.136,0.935,0.338,1.359,0.607
			c0.54,0.465,0.945,0.998,1.215,1.598c0.269,0.6,0.405,1.229,0.405,1.888c0,0.193-0.01,0.397-0.029,0.61
			c-0.02,0.213-0.068,0.416-0.145,0.61c-0.541,1.122-1.37,2.033-2.488,2.73c-1.119,0.698-2.314,1.046-3.587,1.046
			c-0.116,0.039-0.222,0.068-0.318,0.087c-0.096,0.02-0.183,0.029-0.26,0.029c-0.078,0-0.165,0-0.26,0c-0.097,0-0.202,0-0.318,0
			c-0.078,0-0.165,0-0.26,0c-0.097,0-0.183,0-0.26,0c-0.039,0-0.087,0-0.144,0c-0.058,0-0.107-0.019-0.145-0.059
			c-0.116,0-0.241,0-0.376,0c-0.135,0-0.26,0-0.376,0c-0.116,0-0.231,0-0.347,0c-0.116,0-0.213,0.02-0.289,0.059
			c0,0.078,0,0.165,0,0.261c0,0.098,0,0.204,0,0.319c0,0.117,0,0.242,0,0.378c0,0.136,0,0.281,0,0.436
			c-0.039,0.156-0.058,0.3-0.058,0.436c0,0.136,0,0.281,0,0.436c0.038,0.62,0.134,1.201,0.289,1.743
			c0.154,0.542,0.501,0.969,1.041,1.278c0.424,0.155,0.848,0.27,1.273,0.347c0.424,0.078,0.848,0.116,1.273,0.116
			c0.887,0,1.765-0.154,2.632-0.463c0.868-0.308,1.629-0.713,2.285-1.215l0.231,0.347c-0.656,0.54-1.446,0.965-2.372,1.273
			c-0.926,0.309-1.89,0.463-2.893,0.463c-0.347,0-0.685-0.019-1.012-0.057c-0.328-0.038-0.646-0.096-0.954-0.174
			c-1.004-0.309-1.909-0.775-2.719-1.395c-0.81-0.62-1.485-1.434-2.025-2.441c-0.27-0.58-0.483-1.162-0.636-1.743
			c-0.155-0.581-0.231-1.163-0.231-1.744c0-1.046,0.202-2.053,0.607-3.022c0.405-0.969,0.935-1.822,1.591-2.557
			C147.094,27.226,147.953,26.628,148.937,26.203z M154.462,26.261c-0.541-0.269-1.138-0.405-1.793-0.405c-0.039,0-0.078,0-0.116,0
			c-0.039,0-0.097,0-0.174,0c-0.039,0.039-0.078,0.058-0.116,0.058c-0.039,0-0.097,0-0.173,0c-0.116,0.039-0.251,0.068-0.405,0.087
			c-0.155,0.02-0.289,0.049-0.405,0.087c-0.694,0.154-1.331,0.376-1.909,0.665c-0.579,0.289-0.965,0.704-1.157,1.244
			c-0.078,0.463-0.135,0.964-0.173,1.504c-0.039,0.54-0.078,1.08-0.116,1.62c0,0.193,0,0.376,0,0.55c0,0.173,0,0.357,0,0.55
			c0,0.386,0.009,0.762,0.029,1.128c0.019,0.367,0.048,0.704,0.087,1.012c0.231,0.039,0.472,0.058,0.723,0.058
			c0.25,0,0.511,0,0.781,0c0.308,0,0.626-0.009,0.954-0.029c0.327-0.019,0.646-0.048,0.955-0.087
			c1.041-0.154,2.025-0.453,2.951-0.897c0.926-0.443,1.639-1.108,2.141-1.996c0.077-0.231,0.144-0.492,0.202-0.781
			c0.058-0.289,0.087-0.569,0.087-0.839c0-0.463-0.068-0.916-0.203-1.359c-0.136-0.443-0.338-0.839-0.608-1.186
			C155.522,26.859,155.001,26.531,154.462,26.261z"/>
	</g>
	<g>
		<path fill="#2C3589" d="M164.771,43.679v-0.8h0.8v0.8H164.771z"/>
		<path fill="#2C3589" d="M161.976,38.095c-0.182,0.039-0.342,0.101-0.479,0.187c-0.137,0.086-0.251,0.193-0.342,0.32
			c-0.091,0.128-0.16,0.27-0.205,0.429c-0.045,0.159-0.069,0.327-0.069,0.505c0,0.307,0.058,0.57,0.173,0.789
			c0.115,0.218,0.27,0.398,0.465,0.54c0.194,0.142,0.417,0.246,0.666,0.313c0.25,0.067,0.509,0.101,0.778,0.101
			c0.293,0,0.57-0.033,0.832-0.101c0.262-0.067,0.49-0.172,0.684-0.313c0.195-0.142,0.349-0.323,0.465-0.544
			c0.115-0.221,0.173-0.485,0.173-0.792c0-0.226-0.037-0.426-0.112-0.602c-0.074-0.175-0.178-0.327-0.31-0.454
			c-0.132-0.127-0.289-0.227-0.472-0.299c-0.182-0.072-0.379-0.115-0.591-0.13V37.36c0.644,0.067,1.148,0.292,1.513,0.674
			c0.365,0.381,0.548,0.899,0.548,1.553c0,0.399-0.07,0.747-0.209,1.044c-0.139,0.298-0.329,0.545-0.569,0.742
			c-0.24,0.197-0.524,0.345-0.85,0.443c-0.327,0.098-0.677,0.148-1.052,0.148c-0.375,0-0.727-0.053-1.056-0.159
			c-0.329-0.105-0.616-0.26-0.861-0.465c-0.245-0.204-0.438-0.457-0.58-0.76c-0.142-0.303-0.212-0.653-0.212-1.052
			c0-0.269,0.036-0.524,0.108-0.764c0.072-0.24,0.178-0.454,0.317-0.641c0.139-0.187,0.314-0.343,0.522-0.468
			c0.209-0.125,0.45-0.207,0.724-0.245V38.095z"/>
		<path fill="#2C3589" d="M162.999,36.799c-0.351,0-0.688-0.052-1.012-0.155c-0.324-0.103-0.611-0.258-0.861-0.465
			c-0.25-0.206-0.449-0.464-0.598-0.771c-0.149-0.307-0.223-0.665-0.223-1.073s0.074-0.766,0.223-1.074
			c0.149-0.307,0.348-0.564,0.598-0.771c0.25-0.206,0.537-0.361,0.861-0.465c0.324-0.103,0.662-0.155,1.012-0.155
			c0.351,0,0.688,0.052,1.012,0.155c0.324,0.104,0.611,0.258,0.861,0.465c0.25,0.207,0.449,0.464,0.598,0.771
			c0.149,0.307,0.223,0.665,0.223,1.074s-0.075,0.766-0.223,1.073c-0.149,0.307-0.348,0.564-0.598,0.771
			c-0.25,0.207-0.537,0.361-0.861,0.465C163.687,36.747,163.35,36.799,162.999,36.799z M162.999,36.114
			c0.259,0,0.515-0.033,0.767-0.101c0.252-0.067,0.479-0.173,0.681-0.317c0.202-0.144,0.364-0.329,0.486-0.555
			c0.122-0.226,0.184-0.495,0.184-0.807c0-0.312-0.061-0.581-0.184-0.807c-0.122-0.226-0.285-0.411-0.486-0.555
			c-0.202-0.144-0.429-0.25-0.681-0.317c-0.252-0.067-0.508-0.101-0.767-0.101c-0.259,0-0.515,0.034-0.767,0.101
			c-0.252,0.067-0.479,0.173-0.681,0.317c-0.202,0.144-0.364,0.329-0.486,0.555c-0.122,0.226-0.184,0.495-0.184,0.807
			c0,0.312,0.061,0.581,0.184,0.807c0.122,0.226,0.284,0.411,0.486,0.555c0.202,0.144,0.429,0.25,0.681,0.317
			C162.484,36.081,162.74,36.114,162.999,36.114z"/>
		<path fill="#2C3589" d="M160.427,31.021v-0.937l4.323-1.621l-4.323-1.628v-0.936h5.144v0.648h-4.279v0.014l4.279,1.607v0.583
			l-4.279,1.607v0.014h4.279v0.649H160.427z"/>
	</g>
</g>
</svg>
